<svg xmlns="http://www.w3.org/2000/svg" width="85.412" height="27.924" viewBox="0 0 85.412 27.924"><defs><style>.a{fill:#fff;}.b{fill:#5f236e;}.c{fill:#752e87;}.d{fill:#171617;}.e{fill:#722a84;}.f{opacity:0.15;}</style></defs><g transform="translate(-7180.619 -13040.41)"><g transform="translate(7191.519 13046.622)"><path class="a" d="M7265.882,13134.161h0v-.009h0Z" transform="translate(-7254.481 -13115.945)"/><path class="a" d="M7238.479,13068.64a13.48,13.48,0,0,0-.567-1.766,5.893,5.893,0,0,0-2.747-1.778c-2.874-1.048-3.547-.4-3.9.218-.7,1.5-1.394.112-1.394.112-.139-.45-1.046-1.5-4.255-.33-3.587,1.312-3.587,3.346-3.086,4.515a18.294,18.294,0,0,0,1.2,1.9,25.329,25.329,0,0,0,8.341,2.617s-1.359.952-7.735-1.4a2.008,2.008,0,0,1-.012,1.478c-1.914,4.366.6,9.111,1.595,10.281s1.294.588,1.294.588-1.095-7.692,3.183-7.692c2.318,0,3.054,2.261,3.247,4.33,0,.037.007.075.011.114l.008.1c.023.264.037.534.038.811v0a13.8,13.8,0,0,0,3.4-3.94,8.826,8.826,0,0,0-.632-4.6c-.7-1.589,1.293-3.425,1.793-4.6A2.874,2.874,0,0,0,7238.479,13068.64Z" transform="translate(-7222.295 -13064.54)"/><path class="a" d="M7281.7,13072.748c.025.063.054.123.08.187a.168.168,0,0,1,.011.014C7281.765,13072.88,7281.729,13072.815,7281.7,13072.748Z" transform="translate(-7266.164 -13070.602)"/></g><path class="b" d="M7207.989,13056.062a13.594,13.594,0,0,1-1.673,4.853,8.774,8.774,0,0,0-.632-4.584c-.7-1.582,1.294-3.411,1.793-4.581a2.822,2.822,0,0,0,.231-1A13.6,13.6,0,0,1,7207.989,13056.062Zm-8.373,3.435c-4.278,0-3.183,7.663-3.183,7.663s-.3.581-1.295-.585-3.509-5.893-1.595-10.244a2,2,0,0,0,.012-1.474c6.376,2.341,7.735,1.394,7.735,1.394a25.428,25.428,0,0,1-8.341-2.608,18.269,18.269,0,0,1-1.2-1.893c-.5-1.165-.5-3.191,3.086-4.5,3.209-1.165,4.116-.121,4.255.329,0,0,.693,1.386,1.394-.114.353-.616,1.026-1.26,3.9-.215a5.861,5.861,0,0,1,2.758,1.784,13.726,13.726,0,1,0-4.229,15.813C7202.879,13062.592,7202.333,13059.5,7199.616,13059.5Z" transform="translate(0 0.001)"/><g transform="translate(7180.94 13040.41)"><path class="c" d="M7243.908,13113.646c-3.579,0-3.4,5.386-3.241,7.145a16.677,16.677,0,0,0,4.757-.567,14,14,0,0,0,1.79-1.206C7247.172,13116.755,7246.627,13113.646,7243.908,13113.646Z" transform="translate(-7225.234 -13094.591)"/><path class="c" d="M7277.833,13081.093c-.5,1.175-2.489,3.01-1.793,4.6a8.826,8.826,0,0,1,.632,4.6,13.769,13.769,0,0,0,1.393-10.2A2.871,2.871,0,0,1,7277.833,13081.093Z" transform="translate(-7251.296 -13069.775)"/><path class="c" d="M7194.926,13066.39q.546.088,1.087.142c-1.016-1.228-3.455-5.9-1.562-10.2a2,2,0,0,0,.012-1.473c6.376,2.34,7.735,1.393,7.735,1.393a25.4,25.4,0,0,1-8.34-2.607,18.221,18.221,0,0,1-1.2-1.893c-.5-1.165-.5-3.19,3.087-4.5,3.209-1.165,4.116-.12,4.254.328,0,0,.693,1.387,1.394-.112.353-.617,1.026-1.26,3.9-.216a5.854,5.854,0,0,1,2.758,1.784,13.769,13.769,0,0,0-26.032,1.436c0,.027-.01.054-.015.082C7180.8,13057.943,7186.582,13065.034,7194.926,13066.39Z" transform="translate(-7181.849 -13040.411)"/></g><g transform="translate(7218.262 13051.056)"><path class="d" d="M7328.258,13098.418v-16.553a35.509,35.509,0,0,1,5.306-.377q5.341,0,7.665,2.258a7.851,7.851,0,0,1,2.325,5.895,8.467,8.467,0,0,1-2.646,6.664q-2.647,2.364-8.162,2.363A35.553,35.553,0,0,1,7328.258,13098.418Zm3.843-13.8v10.977a7.772,7.772,0,0,0,1.388.074,6.109,6.109,0,0,0,4.431-1.518,5.789,5.789,0,0,0,1.568-4.357,5.208,5.208,0,0,0-1.432-3.961,5.741,5.741,0,0,0-4.121-1.365A9.142,9.142,0,0,0,7332.1,13084.615Z" transform="translate(-7328.258 -13081.488)"/><path class="d" d="M7398.816,13106.332h-8.056a2.138,2.138,0,0,0,1.084,1.694,4.623,4.623,0,0,0,2.46.6,11,11,0,0,0,3.47-.523l.5,2.575a11.512,11.512,0,0,1-4.511.8,6.806,6.806,0,0,1-4.878-1.674,6.009,6.009,0,0,1-1.766-4.576,6.717,6.717,0,0,1,1.7-4.593,5.777,5.777,0,0,1,4.573-1.932,5.106,5.106,0,0,1,4.116,1.723,6.612,6.612,0,0,1,1.462,4.426A6.126,6.126,0,0,1,7398.816,13106.332Zm-8.081-2.649h4.66a3,3,0,0,0-.5-1.646,1.87,1.87,0,0,0-1.7-.78,2.191,2.191,0,0,0-1.642.668A3.084,3.084,0,0,0,7390.735,13103.683Z" transform="translate(-7371.721 -13094.204)"/><path class="d" d="M7434.227,13111.207v-8.3q0-1.813-.1-3.927h3.321l.174,1.727h.1a4.362,4.362,0,0,1,3.843-2,4.094,4.094,0,0,1,3.254,1.392,5.815,5.815,0,0,1,1.208,3.933v7.176h-3.842v-6.675q0-2.728-2.009-2.726a2.048,2.048,0,0,0-1.463.625,2.357,2.357,0,0,0-.644,1.775v7Z" transform="translate(-7406.437 -13094.204)"/><path class="d" d="M7481.445,13088.065l3.743-1.024v3.325h2.751v2.851h-2.751v4.3a3.051,3.051,0,0,0,.354,1.707,1.327,1.327,0,0,0,1.159.493,4.253,4.253,0,0,0,1.166-.125l.025,2.927a7.2,7.2,0,0,1-2.5.349,3.951,3.951,0,0,1-2.838-1.045q-1.1-1.043-1.1-3.681v-4.925h-1.636v-2.851h1.636Z" transform="translate(-7440.171 -13085.589)"/></g><rect class="d" width="4.065" height="12.302" transform="translate(7212.752 13055.518)"/><path class="e" d="M7309.009,13079.588a2.033,2.033,0,0,1-.561,1.47,2.156,2.156,0,0,1-2.945,0,2.2,2.2,0,0,1,.006-2.937,2.141,2.141,0,0,1,2.933,0A2.021,2.021,0,0,1,7309.009,13079.588Z" transform="translate(-92.192 -27.458)"/><g class="f" transform="translate(7218.262 13051.144)"><path class="a" d="M7446.025,13107.216v-3.185a5.815,5.815,0,0,0-1.208-3.933,4.094,4.094,0,0,0-3.254-1.392,4.362,4.362,0,0,0-3.843,2h-.1l-.174-1.727h-3.321q.1,2.114.1,3.927v3.329q1.882.265,3.842.463v-2.491a2.357,2.357,0,0,1,.644-1.775,2.048,2.048,0,0,1,1.463-.625q2.008,0,2.009,2.726v2.5Q7444.079,13107.159,7446.025,13107.216Z" transform="translate(-7406.437 -13094.204)"/><path class="a" d="M7485.188,13087.041l-3.743,1.024v2.3h-1.636v2.851h1.636v4.925c0,.173,0,.338.011.5q.935.013,1.878.014.987,0,1.963-.017a4.9,4.9,0,0,1-.11-1.122v-4.3h2.751v-2.851h-2.751Z" transform="translate(-7440.171 -13085.589)"/><path class="a" d="M7343.554,13089.641a7.851,7.851,0,0,0-2.325-5.895q-2.323-2.253-7.665-2.258a35.509,35.509,0,0,0-5.306.377v.488a17.991,17.991,0,0,0,3.843,3.383v-1.121a9.142,9.142,0,0,1,1.834-.15,5.741,5.741,0,0,1,4.121,1.365,5.041,5.041,0,0,1,1.426,3.627q1.9.735,4.016,1.375C7343.534,13090.447,7343.554,13090.051,7343.554,13089.641Z" transform="translate(-7328.258 -13081.488)"/><path class="a" d="M7399.431,13104.855a6.61,6.61,0,0,0-1.463-4.426,5.1,5.1,0,0,0-4.115-1.723,5.777,5.777,0,0,0-4.574,1.932,6.6,6.6,0,0,0-1.533,3,83.063,83.063,0,0,0,11.577,2.5A6.653,6.653,0,0,0,7399.431,13104.855Zm-8.23-1.173a3.084,3.084,0,0,1,.812-1.758,2.191,2.191,0,0,1,1.642-.668,1.869,1.869,0,0,1,1.7.78,2.994,2.994,0,0,1,.5,1.646Z" transform="translate(-7372.187 -13094.204)"/></g></g></svg>